<?xml version="1.0" encoding="UTF-8"?><svg id="Layer_1" xmlns="http://www.w3.org/2000/svg" viewBox="0 0 659.86 300.82"><defs><style>.cls-1{fill:#fff;stroke-width:0px;}</style></defs><path class="cls-1" d="m387.28,39.56c-14.77-14.77-34.34-23.42-55.11-24.36-21.06-.96-40.65,6.24-55.14,20.26-2.48,2.4-4.71,5.64-6.64,9.64-8.88,18.17,4.86,35.79,21.39,44.47,4.58,2.46,9.59,4.68,15.31,6.8v30.48c0,10.95-4.84,11.85-12.85,13.36l-1.05.2v2.12h75.05l6.65-24.49h-2.73l-.09.21c-6.56,15.19-12.83,20.06-25.8,20.06h-13.9c-15.36,0-16.14-3.37-16.14-13.13v-25.7c3.01.95,6.35,1.93,10.45,3.08,4.67,1.54,10.45,2.91,16.57,4.36,17.89,4.24,38.17,9.06,45.27,20.68,7.08,11.6,1.78,19.87-2.82,25.09-10.66,12.09-26.47,19.05-44.53,19.62-22.33.7-45.42-8.62-61.73-24.93-11.64-11.64-19.49-26.21-22.7-42.14-3.06-15.17-1.6-30.87,4.12-44.21,1.08-2.52,1.72-5.16,1.91-7.87l.13-1.91-.72,1.1c-21.05,31.94-16.66,74.79,10.42,101.89,15.41,15.42,36.6,24.18,58.33,24.18.48,0,.96,0,1.44-.01,21.27-.38,40.77-8.96,54.92-24.16,6.11-6.57,8.57-14.06,7.11-21.68-1.79-9.36-9.37-18.25-19.78-23.19-11.53-5.5-24.02-8.82-36.1-12.04-3.3-.88-6.71-1.79-10.05-2.72l-1.13-.32c-3.64-1.03-7.41-2.09-11.11-3.22v-37.58c0-10.4,4.78-11.77,12.59-13.14l.09-.02c.66-.12,1.32-.23,1.98-.36l.28-.05v-2.12h-37.98v2.12l1.06.2c8.01,1.51,12.84,2.42,12.84,13.36v34.57c-9.34-3.36-16.57-7.04-22.71-11.55-8.17-5.87-13.21-14.22-13.47-22.32-.22-6.77,2.76-12.89,8.61-17.69,28.43-23.34,73.14-19.19,101.79,9.47,10.94,10.93,18.5,24.66,21.86,39.71,3.23,14.42,2.46,29.07-2.22,42.39-.69,1.95-1.01,4.14-.97,6.52,0,.6.01,1.21,0,1.83l-.02,1.35.66-1.18c17.71-31.53,12.22-71.43-13.37-97.02Z"/><path class="cls-1" d="m22.93,276.6v-27.26c0-4.31-1.99-4.44-5.34-5.08v-1.54h18.71v1.54c-3.34.64-5.72.77-5.72,5.08v26.49c0,4.44,1.16,4.89,6.04,4.89h4.24c5.08,0,7.52-1.67,9.84-7.65h1.93l-2.64,10.16H17.59v-1.54c3.34-.64,5.34-.77,5.34-5.08Z"/><path class="cls-1" d="m65.36,276.6v-27.26c0-4.31-1.99-4.44-5.34-5.08v-1.54h18.32v1.54c-3.34.64-5.34.77-5.34,5.08v27.26c0,4.31,1.99,4.44,5.34,5.08v1.54h-18.32v-1.54c3.34-.64,5.34-.77,5.34-5.08Z"/><path class="cls-1" d="m93.06,276.6v-27.26c0-4.31-1.99-4.44-5.34-5.08v-1.54h31.89l.58,9.26h-1.86c-.58-4.57-1.67-6.81-6.3-6.81h-5.27c-4.89,0-6.04.45-6.04,4.89v11.57h4.31c7.78,0,8.55-1.48,8.94-5.4h1.48v13.12h-1.48c-.39-3.92-1.16-5.4-8.94-5.4h-4.31v12.66c0,4.31,1.99,4.44,5.34,5.08v1.54h-18.32v-1.54c3.34-.64,5.34-.77,5.34-5.08Z"/><path class="cls-1" d="m135.17,276.6v-27.26c0-4.31-1.99-4.44-5.34-5.08v-1.54h32.02l.58,9.26h-1.86c-.58-4.57-1.67-6.81-6.3-6.81h-5.4c-4.89,0-6.04.45-6.04,4.89v11.57h4.63c7.78,0,8.55-1.48,8.94-5.4h1.48v13.12h-1.48c-.39-3.92-1.16-5.4-8.94-5.4h-4.63v11.96c0,4.44,1.16,4.89,6.04,4.89h4.05c5.08,0,7.46-1.8,9.84-7.33h1.86l-2.64,9.77h-32.15v-1.54c3.34-.64,5.34-.77,5.34-5.08Z"/><path class="cls-1" d="m175.8,279.94l-.51-8.29h1.74c1.61,5.92,5.72,10.09,11.51,10.09,4.76,0,7.97-3.15,7.97-7.33s-3.28-6.69-8.81-9.26c-5.59-2.57-11.7-5.98-11.7-12.99,0-6.04,4.63-10.48,13.57-10.48,6.69,0,9.9,2.57,11.83,3.79l.19,8.42h-1.61c-1.48-5.53-4.44-9.97-10.16-9.97-4.76,0-6.88,2.89-6.88,6.04,0,3.34,2.38,5.53,8.17,8.23,5.01,2.31,12.86,5.92,12.86,13.89,0,7.2-6.62,11.89-15.04,11.89-6.75,0-11.32-2.83-13.12-4.05Z"/><path class="cls-1" d="m228.39,276.6v-31.7h-3.09c-7.14,0-8.74,3.02-9.58,8.55h-1.48l.51-11.38,3.41.64h28.1l3.41-.64.51,11.38h-1.48c-.84-5.53-2.51-8.55-9.45-8.55h-3.22v31.7c0,4.31,2.06,4.44,6.11,5.08v1.54h-19.87v-1.54c4.05-.64,6.11-.77,6.11-5.08Z"/><path class="cls-1" d="m258.54,244.26v-1.54h17.87v1.54c-2.76.64-5.46.77-3.47,3.99l9.26,14.85,9.07-14.85c1.99-3.28-.71-3.34-4.11-3.99v-1.54h12.79v1.54c-3.34.64-3.6.77-5.66,3.99l-10.86,17.36v11.12c0,4.31,1.99,4.44,5.98,5.08v1.41h-19.61v-1.41c3.99-.64,5.98-.77,5.98-5.08v-10.22l-11.64-18.26c-2.06-3.22-2.25-3.34-5.59-3.99Z"/><path class="cls-1" d="m313.69,276.6v-27.26c0-4.31-1.99-4.44-5.34-5.08v-1.54h18.71v1.54c-3.34.64-5.72.77-5.72,5.08v26.49c0,4.44,1.16,4.89,6.04,4.89h4.24c5.08,0,7.52-1.67,9.84-7.65h1.93l-2.63,10.16h-32.4v-1.54c3.34-.64,5.34-.77,5.34-5.08Z"/><path class="cls-1" d="m356.12,276.6v-27.26c0-4.31-1.99-4.44-5.34-5.08v-1.54h32.02l.58,9.26h-1.87c-.58-4.57-1.67-6.81-6.3-6.81h-5.4c-4.89,0-6.04.45-6.04,4.89v11.57h4.63c7.78,0,8.55-1.48,8.94-5.4h1.48v13.12h-1.48c-.39-3.92-1.16-5.4-8.94-5.4h-4.63v11.96c0,4.44,1.16,4.89,6.04,4.89h4.05c5.08,0,7.46-1.8,9.84-7.33h1.87l-2.64,9.77h-32.15v-1.54c3.34-.64,5.34-.77,5.34-5.08Z"/><path class="cls-1" d="m396.75,279.94l-.51-8.29h1.74c1.61,5.92,5.72,10.09,11.51,10.09,4.76,0,7.97-3.15,7.97-7.33s-3.28-6.69-8.81-9.26c-5.59-2.57-11.7-5.98-11.7-12.99,0-6.04,4.63-10.48,13.57-10.48,6.69,0,9.9,2.57,11.83,3.79l.19,8.42h-1.61c-1.48-5.53-4.44-9.97-10.16-9.97-4.76,0-6.88,2.89-6.88,6.04,0,3.34,2.38,5.53,8.16,8.23,5.02,2.31,12.86,5.92,12.86,13.89,0,7.2-6.62,11.89-15.05,11.89-6.75,0-11.31-2.83-13.12-4.05Z"/><path class="cls-1" d="m444.58,250.56l-1.16,26.04c-.19,4.31,2.06,4.44,5.72,5.08v1.54h-13.95v-1.54c3.34-.64,5.27-.77,5.46-5.08l1.29-27.26c.19-4.31-2.06-4.44-5.4-5.08v-1.54h12.86c.26,1.48,1.16,3.09,1.99,4.95l10.8,25.01,9.64-25.01c.71-1.86,1.48-3.47,1.74-4.95h13.76v1.54c-3.34.64-5.46.77-5.27,5.08l1.22,27.26c.19,4.31,2.06,4.44,5.4,5.08v1.54h-18.39v-1.54c3.34-.64,5.53-.77,5.34-5.08l-1.16-28.67-13.89,35.3h-1.93l-14.08-32.66Z"/><path class="cls-1" d="m503.34,276.6v-27.26c0-4.31-1.99-4.44-5.34-5.08v-1.54h18.32v1.54c-3.34.64-5.34.77-5.34,5.08v27.26c0,4.31,1.99,4.44,5.34,5.08v1.54h-18.32v-1.54c3.34-.64,5.34-.77,5.34-5.08Z"/><path class="cls-1" d="m531.05,276.6v-27.26c0-4.31-1.99-4.44-5.34-5.08v-1.54h18.71v1.54c-3.34.64-5.72.77-5.72,5.08v26.49c0,4.44,1.16,4.89,6.04,4.89h4.24c5.08,0,7.52-1.67,9.84-7.65h1.93l-2.64,10.16h-32.4v-1.54c3.34-.64,5.34-.77,5.34-5.08Z"/><path class="cls-1" d="m573.48,276.6v-27.26c0-4.31-1.99-4.44-5.34-5.08v-1.54h32.02l.58,9.26h-1.87c-.58-4.57-1.67-6.81-6.3-6.81h-5.4c-4.89,0-6.04.45-6.04,4.89v11.57h4.63c7.78,0,8.55-1.48,8.94-5.4h1.48v13.12h-1.48c-.39-3.92-1.16-5.4-8.94-5.4h-4.63v11.96c0,4.44,1.16,4.89,6.04,4.89h4.05c5.08,0,7.46-1.8,9.84-7.33h1.87l-2.64,9.77h-32.15v-1.54c3.34-.64,5.34-.77,5.34-5.08Z"/><path class="cls-1" d="m614.11,279.94l-.51-8.29h1.74c1.61,5.92,5.72,10.09,11.51,10.09,4.76,0,7.97-3.15,7.97-7.33s-3.28-6.69-8.81-9.26c-5.59-2.57-11.7-5.98-11.7-12.99,0-6.04,4.63-10.48,13.57-10.48,6.69,0,9.9,2.57,11.83,3.79l.19,8.42h-1.61c-1.48-5.53-4.44-9.97-10.16-9.97-4.76,0-6.88,2.89-6.88,6.04,0,3.34,2.38,5.53,8.17,8.23,5.01,2.31,12.86,5.92,12.86,13.89,0,7.2-6.62,11.89-15.05,11.89-6.75,0-11.31-2.83-13.12-4.05Z"/></svg>